<svg xmlns="http://www.w3.org/2000/svg" width="87" height="63"><defs><filter id="A" x="1" y="0" width="89" height="64" filterUnits="userSpaceOnUse"><feOffset dx="0.5" dy="0.866" in="SourceAlpha"/><feGaussianBlur result="B"/><feFlood flood-opacity=".2"/><feComposite operator="in" in2="B"/><feBlend result="E" in="SourceGraphic"/><feFlood flood-color="#fff"/><feComposite operator="in" in2="SourceGraphic"/><feBlend in2="E"/></filter></defs><path d="M34.764,43.649a5.484,5.484,0,0,1-1.57-.26v16.92a2.358,2.358,0,0,0,4.175,1.483l15-18.143H46.275L37.9,53.774V43.649h-3.14ZM23.348,28.06L26.956,29.4l-0.735-5.266-1.622-.6a2.368,2.368,0,0,0-.826-0.148H3.361a2.338,2.338,0,1,0,0,4.677H23.348ZM89,51.639A11.449,11.449,0,0,0,69.9,43.2l-6.83-4.949L61.449,39.92a14.485,14.485,0,0,1-1.9,1.57l7.571,5.486A11.243,11.243,0,0,0,66.1,51.639,11.447,11.447,0,0,0,89,51.639ZM77.55,55.5a3.871,3.871,0,0,1-3.881-3.778c0-.028-0.008-0.055-0.008-0.083A3.889,3.889,0,1,1,77.55,55.5ZM60.621,36.478l15.9-16.335c1.214-1.219.795-1.437-.932-1.437H31.624c-1.727,0-2.941.8-2.7,2.5l0.6,4.15,0.758,5.276,0.9,6.226a4.882,4.882,0,0,0,2.073,3.167,2.811,2.811,0,0,0,1.512.5h19.1a4.694,4.694,0,0,0,1.243-.2,8.886,8.886,0,0,0,1.8-.749,10.172,10.172,0,0,0,2.3-1.659Zm0.05-31.8H52.036L49.484,0h-5.3L40.063,7.793H36.334l-3.14,7.795H72.447L69.9,10.911H64.6Z" transform="translate(-1)" fill-rule="evenodd" filter="url(#A)"/></svg>