<svg xmlns="http://www.w3.org/2000/svg" width="59.406" height="50.781" viewBox="0 0 59.406 50.781"><defs><filter id="A" x=".594" y=".219" width="61.406" height="51.781" filterUnits="userSpaceOnUse"><feOffset dx="0.5" dy="0.866" in="SourceAlpha"/><feGaussianBlur result="B"/><feFlood flood-opacity=".2"/><feComposite operator="in" in2="B"/><feBlend result="E" in="SourceGraphic"/><feFlood flood-color="#fff"/><feComposite operator="in" in2="SourceGraphic"/><feBlend in2="E"/></filter></defs><path d="M59.227 43.658l-.5.278c-.258.143-6.426 3.482-16.982 3.482A54.39 54.39 0 0 1 29.6 46c-4.292-.996-8.64-1.732-13.02-2.206-2.85-.3-5.717-.47-8.585-.48-1.942-.028-3.884.08-5.81.322l-.8.127-.054-.147-.2-.536a34.74 34.74 0 0 0-.221 1.213 1.98 1.98 0 0 0-.128.864c-.258 1.958-.286 3.734.323 3.623 1.24-.226 13.175.9 16.07.9 1.415 0 2.05-1.236 2.33-2.5 2.53.227 5.022.766 7.42 1.605a38.81 38.81 0 0 0 13.367 1.994c7.446 0 15.13-1.377 19.085-3.555a1.99 1.99 0 0 0-.138-3.565zM1.666 40.9c.055.6.175 1.172.36 1.736 1.98-.255 3.974-.367 5.97-.336a74.98 74.98 0 0 1 2.278.039c3.36.116 6.712.417 10.04.9q1.918.274 4.017.65c1.742.314 3.57.685 5.492 1.125a53.26 53.26 0 0 0 11.919 1.393c10.42 0 16.5-3.358 16.5-3.358-.1-5.062-4.606-6.234-9.094-6.612-.47-.04-.947-.054-1.43-.054-.953 0-1.923.053-2.89.053-2.708 0-5.4-.4-7.63-3.467-.376.494-.72 1.012-1.025 1.552-.514.93-1.86-.03-1.35-.955a15.28 15.28 0 0 1 1.4-2.043 22.95 22.95 0 0 0-2.938-3.482 10.33 10.33 0 0 0-1.983 2.337c-.58.885-2.03.086-1.443-.808a13.08 13.08 0 0 1 2.209-2.653c-.875-.773-1.633-1.4-2.2-2.022a13.5 13.5 0 0 0-3.154 2.876c-.675.818-2.016-.15-1.335-.976A15.6 15.6 0 0 1 29 23.493a2.99 2.99 0 0 1-.107-1.41c.07-.573.09-1.15.06-1.728-1.956.05-3.908.2-5.848.453-1.055.14-1.04-1.515 0-1.653a56.28 56.28 0 0 1 5.748-.452c-.122-1.5-.334-3.273-.582-5.116-2.378-.06-4.754.158-7.082.647-.436.1-.88-.148-1-.582s.13-.883.56-1.012a32.42 32.42 0 0 1 7.294-.705c-.556-3.968-1.17-7.925-1.22-9.773C26.78.653 25.7.224 24 .224c-2.237 0-5.544.736-8.973.736A21.15 21.15 0 0 1 13.388.9a18.81 18.81 0 0 0-1.476-.058 15.01 15.01 0 0 0-8.961 2.641c0 0 6.3 13.64 1.653 23.767C1.5 34.018 1.395 38.6 1.666 40.9z" transform="translate(-.594 -.219)" fill-rule="evenodd" filter="url(#A)"/></svg>