<svg xmlns="http://www.w3.org/2000/svg" width="61.1" height="57.4" viewBox="0 0 611 574"><defs><filter id="A" x="1" y="1" width="613" height="576" filterUnits="userSpaceOnUse"><feOffset dx="0.5" dy="0.866" in="SourceAlpha"/><feGaussianBlur result="B"/><feFlood flood-color="#e8eff5"/><feComposite operator="in" in2="B"/><feBlend result="E" in="SourceGraphic"/><feFlood flood-color="#007eff"/><feComposite operator="in" in2="SourceGraphic"/><feBlend in2="E"/></filter></defs><path d="M594.266,426H575.53V232.25A18.742,18.742,0,0,0,556.8,213.5H450.633V19.751A18.743,18.743,0,0,0,431.9,1H182.1a18.743,18.743,0,0,0-18.735,18.75V213.5H57.2a18.743,18.743,0,0,0-18.735,18.75V426H19.735A18.744,18.744,0,0,0,1,444.749v112.5A18.743,18.743,0,0,0,19.735,576H94.673a18.743,18.743,0,0,0,18.735-18.75V538.5H250.8v18.75A18.743,18.743,0,0,0,269.531,576H344.47a18.743,18.743,0,0,0,18.734-18.75V538.5H500.592v18.75A18.743,18.743,0,0,0,519.326,576h74.94A18.743,18.743,0,0,0,613,557.249v-112.5A18.744,18.744,0,0,0,594.266,426Zm-56.2-175V426H325.734V251H538.061ZM200.837,38.5H413.163v175H200.837V38.5ZM75.939,251H288.265V426H75.939V251ZM575.53,538.5H538.061V519.75A18.743,18.743,0,0,0,519.326,501H344.47a18.744,18.744,0,0,0-18.736,18.751V538.5H288.265V519.75A18.743,18.743,0,0,0,269.531,501H94.673A18.743,18.743,0,0,0,75.939,519.75V538.5H38.469v-75H575.53v75Z" transform="translate(-1 -1)" fill-rule="evenodd" filter="url(#A)"/></svg>