<svg xmlns="http://www.w3.org/2000/svg" width="611.5" height="509.563"><defs><filter id="A" x=".5" y=".438" width="613.5" height="511.563" filterUnits="userSpaceOnUse"><feOffset dx="0.5" dy="0.866" in="SourceAlpha"/><feGaussianBlur result="B"/><feFlood flood-opacity=".2"/><feComposite operator="in" in2="B"/><feBlend result="E" in="SourceGraphic"/><feFlood flood-color="#fff"/><feComposite operator="in" in2="SourceGraphic"/><feBlend in2="E"/></filter></defs><path d="M233.043,111.375c47.322,0,89.859,12.9,120.758,34.016l25.317-24.447A70.1,70.1,0,0,0,281.723,20.09c-0.12.113-.239,0.225-0.363,0.336a44.585,44.585,0,0,0-9.561,13.5A97.893,97.893,0,0,1,337.3,63.865,14.255,14.255,0,0,1,316.8,83.67a70.084,70.084,0,0,0-117.976,29.994,257.093,257.093,0,0,1,27.157-2.19C228.335,111.408,230.705,111.375,233.043,111.375Zm359.09,140.6H20.867A20.369,20.369,0,0,0,.5,272.343v111a20.369,20.369,0,0,0,20.367,20.367c27.977,0,42.663-6.281,55.618-11.824,11.158-4.773,19.967-8.541,39.6-8.541s28.447,3.768,39.6,8.541c12.956,5.543,27.641,11.824,55.62,11.824s42.659-6.283,55.614-11.824c11.154-4.773,19.963-8.541,39.593-8.541s28.44,3.768,39.594,8.541c12.955,5.541,27.639,11.824,55.614,11.824s42.661-6.283,55.616-11.824c11.151-4.773,19.963-8.541,39.592-8.541s28.436,3.768,39.59,8.541c12.956,5.541,27.637,11.824,55.612,11.824A20.369,20.369,0,0,0,612.5,383.338V272.343A20.369,20.369,0,0,0,592.133,251.976Zm-95.2,159.874c-13.786,0-18.36,1.958-28.389,6.25-13.93,5.959-33.009,14.118-66.819,14.118s-52.888-8.159-66.834-14.125c-10.015-4.285-14.587-6.243-28.374-6.243s-18.361,1.958-28.39,6.25c-13.929,5.959-33.006,14.118-66.817,14.118-33.827,0-52.906-8.163-66.835-14.122-10.021-4.288-14.6-6.246-28.388-6.246s-18.361,1.958-28.384,6.243c-9.631,4.12-21.729,9.291-39.457,12.092l20.371,66.033a20.364,20.364,0,0,0,19.46,14.364H524.929a20.364,20.364,0,0,0,19.46-14.364l20.371-66.035c-17.717-2.8-29.815-7.965-39.456-12.09C515.287,413.81,510.714,411.85,496.931,411.85ZM188.405,183.038c-0.635-20.474,16.853-36.845,38.463-37.6s39.866,14.98,40.5,35.454a14.272,14.272,0,0,0,14.243,13.868c0.13,0,.261,0,0.391,0a14.259,14.259,0,0,0,13.866-14.638c-0.342-12.642-3.317-23.885-8.634-33.388,48.6,12.765,84.115,42.1,88.533,76.733H83.58c3.942-18.863,17.006-36.788,37.876-51.534a165.764,165.764,0,0,1,45.325-22.057c-4.837,9.808-7.223,21.239-6.877,33.94a14.254,14.254,0,0,0,14.241,13.87c0.132,0,.264,0,0.4-0.008A14.231,14.231,0,0,0,188.405,183.038Zm274.087,3.885a14.261,14.261,0,0,1-20.163,0,69.64,69.64,0,0,0-49.57-20.532,70.469,70.469,0,0,0-13.408,1.3c14.426,16.3,23.361,35.28,25.089,55.773H504.928l86.022-86.027A70.1,70.1,0,0,0,491.812,38.3c-0.12.117-.235,0.231-0.356,0.344a44.413,44.413,0,0,0-9.339,13.7,98.238,98.238,0,0,1,66.036,28.748,14.257,14.257,0,1,1-20.163,20.163,70.085,70.085,0,0,0-118.7,38.021,97.877,97.877,0,0,1,53.2,27.48A14.263,14.263,0,0,1,462.492,186.923Z" transform="translate(-.5 -.438)" fill-rule="evenodd" filter="url(#A)"/></svg>