<svg xmlns="http://www.w3.org/2000/svg" width="75" height="66"><defs><filter id="A" x="1" y="1" width="77" height="68" filterUnits="userSpaceOnUse"><feOffset dx="0.5" dy="0.866" in="SourceAlpha"/><feGaussianBlur result="B"/><feFlood flood-opacity=".2"/><feComposite operator="in" in2="B"/><feBlend result="E" in="SourceGraphic"/><feFlood flood-color="#fff"/><feComposite operator="in" in2="SourceGraphic"/><feBlend in2="E"/></filter></defs><path d="M35.65 1.006H2.125c-.296 0-.58.117-.8.327s-.328.494-.328.8V68h4.47V57.948c0-.296.118-.58.328-.8s.494-.327.8-.327h4.47c.617 0 1.117.5 1.117 1.117V68h24.585V2.123a1.12 1.12 0 0 0-1.118-1.117zM12.182 50.69a.56.56 0 0 1-.558.557H6.036a.56.56 0 0 1-.559-.557v-5.583a.56.56 0 0 1 .559-.558h5.587a.56.56 0 0 1 .558.558v5.583zm0-12.282a.56.56 0 0 1-.558.558H6.036a.56.56 0 0 1-.559-.558v-5.582a.56.56 0 0 1 .559-.558h5.587a.56.56 0 0 1 .558.558v5.582zm0-12.28a.56.56 0 0 1-.558.558H6.036a.56.56 0 0 1-.559-.558v-5.583a.56.56 0 0 1 .559-.558h5.587a.56.56 0 0 1 .558.558v5.582zm0-12.28a.56.56 0 0 1-.558.558H6.036a.56.56 0 0 1-.559-.558V8.264a.56.56 0 0 1 .559-.558h5.587a.56.56 0 0 1 .558.558v5.582zM22.24 50.69a.56.56 0 0 1-.558.557h-5.588a.56.56 0 0 1-.559-.557v-5.583a.56.56 0 0 1 .559-.558h5.587a.56.56 0 0 1 .558.558v5.583zm0-12.282a.56.56 0 0 1-.558.558h-5.588a.56.56 0 0 1-.559-.558v-5.582a.56.56 0 0 1 .559-.558h5.587a.56.56 0 0 1 .558.558v5.582zm0-12.28a.56.56 0 0 1-.558.558h-5.588a.56.56 0 0 1-.559-.558v-5.583a.56.56 0 0 1 .559-.558h5.587a.56.56 0 0 1 .558.558v5.582zm0-12.28a.56.56 0 0 1-.558.558h-5.588a.56.56 0 0 1-.559-.558V8.264a.56.56 0 0 1 .559-.558h5.587a.56.56 0 0 1 .558.558v5.582zM32.3 50.69a.56.56 0 0 1-.558.557h-5.59a.56.56 0 0 1-.559-.557v-5.583a.56.56 0 0 1 .559-.558h5.587a.56.56 0 0 1 .558.558v5.583zm0-12.282a.56.56 0 0 1-.558.558h-5.59a.56.56 0 0 1-.559-.558v-5.582a.56.56 0 0 1 .559-.558h5.587a.56.56 0 0 1 .558.558v5.582zm0-12.28a.56.56 0 0 1-.558.558h-5.59a.56.56 0 0 1-.559-.558v-5.583a.56.56 0 0 1 .559-.558h5.587a.56.56 0 0 1 .558.558v5.582zm0-12.28a.56.56 0 0 1-.558.558h-5.59a.56.56 0 0 1-.559-.558V8.264a.56.56 0 0 1 .559-.558h5.587a.56.56 0 0 1 .558.558v5.582zm43.884 19.3l-33.527-9.422a1.12 1.12 0 0 0-1.42 1.075V68h4.47v-8.936c0-.296.118-.58.328-.8s.494-.327.8-.326h4.47c.296 0 .58.117.8.327s.327.493.327.79V68H77V34.23a1.12 1.12 0 0 0-.819-1.075zM52.41 52.924c0 .148-.06.3-.163.394s-.247.163-.395.163h-5.588a.56.56 0 0 1-.559-.557V47.34a.56.56 0 0 1 .559-.557h5.587c.148 0 .3.058.395.163s.163.246.163.394v5.584zm0-12.282c0 .148-.06.3-.163.394s-.247.163-.395.163h-5.588a.56.56 0 0 1-.559-.557V35.06a.56.56 0 0 1 .559-.558h5.587a.56.56 0 0 1 .558.558v5.582zm10.057 12.282c0 .148-.06.3-.163.394s-.247.163-.395.163h-5.587a.56.56 0 0 1-.559-.557V47.34a.56.56 0 0 1 .559-.557H61.9c.148 0 .3.058.395.163s.163.246.163.394v5.584zm0-12.282c0 .148-.06.3-.163.394s-.247.163-.395.163h-5.587a.56.56 0 0 1-.559-.557V35.06a.56.56 0 0 1 .559-.558H61.9a.56.56 0 0 1 .558.558v5.582zm10.057 12.282c0 .148-.06.3-.163.394s-.247.163-.395.163H66.38a.56.56 0 0 1-.559-.557V47.34a.56.56 0 0 1 .559-.557h5.587c.148 0 .3.058.395.163s.163.246.163.394v5.584zm0-12.282c0 .148-.06.3-.163.394s-.247.163-.395.163H66.38a.56.56 0 0 1-.559-.557V35.06a.56.56 0 0 1 .559-.56h5.587a.56.56 0 0 1 .558.558v5.582z" transform="translate(-1 -1)" fill-rule="evenodd" filter="url(#A)"/></svg>