<svg xmlns="http://www.w3.org/2000/svg" width="79.972" height="80" viewBox="0 0 799.719 800"><defs><filter id="A" x=".281" y="0" width="800.719" height="801" filterUnits="userSpaceOnUse"><feOffset dx="0.5" dy="0.866" in="SourceAlpha"/><feGaussianBlur result="B"/><feFlood flood-color="#e8eff5"/><feComposite operator="in" in2="B"/><feBlend result="E" in="SourceGraphic"/><feFlood flood-color="#007eff"/><feComposite operator="in" in2="SourceGraphic"/><feBlend in2="E"/></filter></defs><path d="M682.9,117.277C607.339,41.717,506.986,0,400.1,0S192.864,41.55,117.307,117.11C-28.445,262.869-39,495.749,90.837,653.57c-17.926,36.692-39.2,61.153-62.992,72.88a37.32,37.32,0,0,0,10.722,70.366A190.222,190.222,0,0,0,66.88,799h0c49.087,0,100.687-16.922,143.742-46.576A400.367,400.367,0,0,0,400.1,800c106.885,0,207.238-41.55,282.794-117.11S800,506.807,800,400.084,758.452,192.838,682.9,117.277Zm-32,533.613a354.88,354.88,0,0,1-430.389,55.121,22.509,22.509,0,0,0-25.3,1.508c-51.264,39.707-102.864,45.57-125.481,46.073,26.973-20.105,49.59-51.268,68.521-94.66a22.774,22.774,0,0,0-3.853-24.125C10.422,494.743,16.956,281.3,149.306,148.942a354.7,354.7,0,0,1,501.59,0C789.278,287.5,789.278,512.67,650.9,650.89ZM501.625,216.8A134.579,134.579,0,0,0,405.8,256.5l-5.7,5.7-5.7-5.7A135.17,135.17,0,1,0,203.251,447.665L384.018,628.439a22.446,22.446,0,0,0,31.832.168L597.119,448A135.372,135.372,0,0,0,501.625,216.8Zm63.5,199.2L399.933,580.523,235.082,415.665a90.034,90.034,0,1,1,127.325-127.33l21.779,21.78a22.548,22.548,0,0,0,32,0L437.8,288.5a89.99,89.99,0,0,1,127.492,0,88.651,88.651,0,0,1,26.3,63.665A89.6,89.6,0,0,1,565.121,416Z" transform="translate(-.281)" fill-rule="evenodd" filter="url(#A)"/></svg>