<svg xmlns="http://www.w3.org/2000/svg" width="541.375" height="611.5"><defs><filter id="A" x=".625" y=".5" width="547.375" height="621.5" filterUnits="userSpaceOnUse"><feOffset dx="5" dy="8.66" in="SourceAlpha"/><feGaussianBlur result="B"/><feFlood flood-opacity=".2"/><feComposite operator="in" in2="B"/><feBlend result="E" in="SourceGraphic"/><feFlood flood-color="#fff"/><feComposite operator="in" in2="SourceGraphic"/><feBlend in2="E"/></filter></defs><path d="M206.224,136.415a8.189,8.189,0,0,0,12.6,5.588l52.68-34.712L324.2,142a8.189,8.189,0,0,0,12.6-5.592l13.049-84.687A41.722,41.722,0,0,0,318.957,4.932q-1.29-.329-2.588-0.576A246.367,246.367,0,0,0,271.509.5a245.948,245.948,0,0,0-44.891,3.865c-1.132.213-2.266,0.483-3.4,0.8a41.743,41.743,0,0,0-30.044,46.65Zm26.716-82.68a4.781,4.781,0,0,1,3.913-3c8.377-.931,17.9-1.537,28.091-1.718,2.163-.04,4.346-0.064,6.563-0.064s4.37,0.026,6.518.064c10.184,0.182,19.711.785,28.1,1.718a4.775,4.775,0,0,1,3.092,7.861l-37.734,43.947L233.757,58.6A4.786,4.786,0,0,1,232.94,53.735ZM541.007,354.181L421.967,85.919a54.336,54.336,0,0,0-31.4-29.1,53.747,53.747,0,0,0-10.843-2.669l-15.32,99.427A29.9,29.9,0,0,1,318.4,174L271.5,143.1,224.621,174a29.9,29.9,0,0,1-46.007-20.41L163.278,54.152a54.391,54.391,0,0,0-42.227,31.765L2.011,354.181a16.036,16.036,0,0,0,7.458,20.866L41.7,391.29A15.946,15.946,0,0,0,63.262,384.2l87.07-172.722-53.917,381.9A16.181,16.181,0,0,0,112.3,612.5H256.549V478.445a14.952,14.952,0,1,1,29.9,0V612.5H425.311a20.683,20.683,0,0,0,20.341-24.419L392.76,211.659,479.719,384.2a15.984,15.984,0,0,0,21.546,7.126l32.247-16.278A16.084,16.084,0,0,0,541.007,354.181ZM271.5,421.86A16.483,16.483,0,1,1,287.983,405.4,16.476,16.476,0,0,1,271.5,421.86Zm0-65.91a16.492,16.492,0,1,1,16.482-16.5A16.506,16.506,0,0,1,271.5,355.95Zm0-65.948a16.482,16.482,0,1,1,16.482-16.482A16.489,16.489,0,0,1,271.5,290Zm0-65.93a16.484,16.484,0,1,1,16.482-16.482A16.49,16.49,0,0,1,271.5,224.072Z" transform="translate(-.625 -.5)" fill-rule="evenodd" filter="url(#A)"/></svg>