<svg xmlns="http://www.w3.org/2000/svg" width="129.6" height="135.3" viewBox="0 0 432 451"><defs><filter id="A" x="0" y="0" width="433" height="452" filterUnits="userSpaceOnUse"><feOffset dx="0.5" dy="0.866" in="SourceAlpha"/><feGaussianBlur result="B"/><feFlood flood-opacity=".2"/><feComposite operator="in" in2="B"/><feBlend result="E" in="SourceGraphic"/><feFlood flood-color="#fff"/><feComposite operator="in" in2="SourceGraphic"/><feBlend in2="E"/></filter></defs><path d="M411.274 284.026a20.689 20.689 0 0 0-16.14 7.726v-13.81a20.727 20.727 0 0 0-39.578-8.606v-9.818a20.726 20.726 0 0 0-41.451 0v64.668H117.9V259.52a20.726 20.726 0 0 0-41.451 0v9.818a20.728 20.728 0 0 0-39.579 8.606v13.81A20.724 20.724 0 0 0 0 304.743v80.317a20.723 20.723 0 0 0 36.865 12.989v13.81a20.727 20.727 0 0 0 39.579 8.6v9.82a20.726 20.726 0 0 0 41.451 0v-64.662H314.1v64.666a20.726 20.726 0 0 0 41.451 0v-9.82a20.727 20.727 0 0 0 39.578-8.6V398.05A20.723 20.723 0 0 0 432 385.06v-80.317a20.719 20.719 0 0 0-20.726-20.717zm0-238.8a20.688 20.688 0 0 0-16.14 7.726V39.14a20.727 20.727 0 0 0-39.578-8.606v-9.818a20.726 20.726 0 0 0-41.451 0v64.668H117.9V20.716a20.726 20.726 0 0 0-41.451 0v9.818a20.728 20.728 0 0 0-39.584 8.606v13.808A20.724 20.724 0 0 0 0 65.94v80.317a20.723 20.723 0 0 0 36.865 12.989v13.81a20.727 20.727 0 0 0 39.579 8.6v9.82a20.726 20.726 0 0 0 41.451 0v-64.662H314.1v64.665a20.726 20.726 0 0 0 41.451 0v-9.82a20.727 20.727 0 0 0 39.578-8.6v-13.814A20.723 20.723 0 0 0 432 146.257V65.94a20.719 20.719 0 0 0-20.726-20.718z" fill-rule="evenodd" filter="url(#A)"/></svg>