<svg xmlns="http://www.w3.org/2000/svg" width="460" height="363" viewBox="0 0 460 363"><defs><filter id="A" x="0" y="0" width="461" height="364" filterUnits="userSpaceOnUse"><feOffset dx="0.5" dy="0.866" in="SourceAlpha"/><feGaussianBlur result="B"/><feFlood flood-opacity=".2"/><feComposite operator="in" in2="B"/><feBlend result="E" in="SourceGraphic"/><feFlood flood-color="#fff"/><feComposite operator="in" in2="SourceGraphic"/><feBlend in2="E"/></filter></defs><path d="M287.576 39.578a31.9 31.9 0 1 1-31.923 31.9 31.91 31.91 0 0 1 31.923-31.9zM447.96 273.3v-83.438a49.479 49.479 0 0 0-23.28-41.986 21.974 21.974 0 0 0 15.808-21.076h0a21.973 21.973 0 0 0-21.982-21.965h-16.12a21.935 21.935 0 0 0-7.622 1.358l-17.943-93.368A15.817 15.817 0 0 0 361.287 0H99.538A15.816 15.816 0 0 0 84 12.825l-18.242 94.933A21.892 21.892 0 0 0 54.8 104.83H38.676a21.973 21.973 0 0 0-21.982 21.97h0a21.973 21.973 0 0 0 17.04 21.4 49.475 49.475 0 0 0-22.78 41.666V273.3A10.95 10.95 0 0 0 0 284.245v27.276a10.951 10.951 0 0 0 10.954 10.946h16.992a40.565 40.565 0 0 0 81.13 0h58.843v20.48a9.79 9.79 0 0 0 9.793 9.786h107.526a9.79 9.79 0 0 0 9.793-9.786v-20.48h54.808a40.565 40.565 0 0 0 81.13 0h18.077A10.95 10.95 0 0 0 460 311.521v-27.276a10.951 10.951 0 0 0-10.954-10.945h-1.085zm-67.56-66.556a24.219 24.219 0 1 1-24.238 24.218 24.228 24.228 0 0 1 24.238-24.218zm-93.1-18.4a9.789 9.789 0 0 1 9.793 9.785v46.94a9.79 9.79 0 0 1-9.793 9.786H175.65a9.79 9.79 0 0 1-9.793-9.786v-46.94a9.789 9.789 0 0 1 9.793-9.785H287.3zM86.51 255.182a24.227 24.227 0 1 1 22.566-15.382 24.229 24.229 0 0 1-22.566 15.382zm26.1-223.57h235.607L369.1 140.328h-5.175a36.551 36.551 0 0 0-35.143-26.785H246.1a36.553 36.553 0 0 0-35.143 26.785H91.714zm163.333 302.044h-88.934v-24.32h88.934v24.32z" fill-rule="evenodd" filter="url(#A)"/></svg>