<svg xmlns="http://www.w3.org/2000/svg" width="79.9" height="65.716" viewBox="0 0 799 657.156"><defs><filter id="A" x="1" y=".844" width="801" height="658.156" filterUnits="userSpaceOnUse"><feOffset dx="0.5" dy="0.866" in="SourceAlpha"/><feGaussianBlur result="B"/><feFlood flood-opacity=".2"/><feComposite operator="in" in2="B"/><feBlend result="E" in="SourceGraphic"/><feFlood flood-color="#fff"/><feComposite operator="in" in2="SourceGraphic"/><feBlend in2="E"/></filter></defs><path d="M781.531,400.341c-0.654-2.126-192.883-355.918-192.883-355.918a83.589,83.589,0,0,0-146.912,79.783,33.525,33.525,0,0,0,58.9-32.044,16.592,16.592,0,0,1,6.544-22.4c7.852-4.414,18-1.308,22.413,6.54L654.906,306.825A176.945,176.945,0,0,0,458.751,416.853C441.409,406.389,423.086,401,403.945,401c-22.9,0-43.19,7.357-59.878,17A176.812,176.812,0,0,0,178.015,302.41a162.625,162.625,0,0,0-29.776,2.616L272.575,76.467a16.508,16.508,0,0,1,28.957,15.859,33.525,33.525,0,0,0,58.9,32.044c22.086-40.383,7.034-91.228-33.538-113.3C286.644-11,235.765,4.041,213.679,44.423c0,0-190.593,350.359-190.757,350.686A178.905,178.905,0,0,0,1,480.941c0,96.95,78.364,176.9,177.015,176.9,94.4,0,171.779-73.244,176.686-165.943,9.98-9.973,28.3-24.524,47.608-24.524,14.56,0,29.284,9.319,45.317,29.429C455.643,586.555,530.57,658,623.985,658,721,658,801,578.054,801,481.105A176.237,176.237,0,0,0,781.531,400.341ZM178.014,589.99a110.52,110.52,0,1,1,0-221.039c61.35,0,110.593,51.009,110.593,110.519A110.316,110.316,0,0,1,178.014,589.99Zm445.971,0a110.52,110.52,0,1,1,0-221.039c61.35,0,110.594,51.009,110.594,110.519A110.42,110.42,0,0,1,623.985,589.99Z" transform="translate(-1 -.844)" fill-rule="evenodd" filter="url(#A)"/></svg>