<svg xmlns="http://www.w3.org/2000/svg" width="58" height="60.688" viewBox="0 0 58 60.688"><defs><filter id="A" x="0" y=".313" width="59" height="62.688" filterUnits="userSpaceOnUse"><feOffset dx="0.5" dy="0.866" in="SourceAlpha"/><feGaussianBlur result="B"/><feFlood flood-opacity=".2"/><feComposite operator="in" in2="B"/><feBlend result="E" in="SourceGraphic"/><feFlood flood-color="#fff"/><feComposite operator="in" in2="SourceGraphic"/><feBlend in2="E"/></filter></defs><path d="M55.567,18.763L31.8,1.155a5,5,0,0,0-5.607,0L2.433,18.763A6.474,6.474,0,0,0,0,23.6V57.96a4.025,4.025,0,0,0,4.011,4.032H53.986A4.025,4.025,0,0,0,58,57.96V23.6A6.471,6.471,0,0,0,55.567,18.763ZM4.014,57.959V23.6a2.554,2.554,0,0,1,.8-1.59L28.575,4.4a0.935,0.935,0,0,1,.849,0L53.188,22.008a2.55,2.55,0,0,1,.8,1.589l0,34.363H4.014ZM38.536,23.9H33.288a0.627,0.627,0,0,0-.628.63V29.81a0.628,0.628,0,0,1-.627.631H27.64a0.628,0.628,0,0,1-.627-0.631V24.535a0.628,0.628,0,0,0-.628-0.63H21.136a0.628,0.628,0,0,1-.627-0.629V18.859a0.628,0.628,0,0,1,.627-0.631h5.249a0.628,0.628,0,0,0,.628-0.628V12.325a0.628,0.628,0,0,1,.627-0.631h4.393a0.628,0.628,0,0,1,.627.631V17.6a0.629,0.629,0,0,0,.629.628h5.249a0.628,0.628,0,0,1,.627.631v4.416A0.628,0.628,0,0,1,38.536,23.9Zm9.935,12.876a1.507,1.507,0,0,0-1.48,1.262,0.871,0.871,0,0,0-.024.25v7.476H44.794V44.887c0-.486-0.9-0.882-2.005-0.882H16.174l-0.064-.081a5.079,5.079,0,0,0-3.739-1.875V33.338a2.006,2.006,0,1,0-4.011,0V54.672a2.006,2.006,0,1,0,4.011,0V48.96h2.09v1.16A2.449,2.449,0,0,0,16.327,52c4.685,1.2,13.475.478,16.183-.718,2.212-.978,7.421-0.576,10.3-0.254,1.1,0.122,1.989-.266,1.989-0.907V48.96h2.172v5.713a1.5,1.5,0,1,0,3.008,0V38.293a0.868,0.868,0,0,0-.024-0.25A1.507,1.507,0,0,0,48.471,36.781Z" transform="translate(0 -.313)" fill-rule="evenodd" filter="url(#A)"/></svg>