<svg xmlns="http://www.w3.org/2000/svg" width="448" height="361" viewBox="0 0 448 361"><defs><filter id="A" x="0" y="0" width="449" height="362" filterUnits="userSpaceOnUse"><feOffset dx="0.5" dy="0.866" in="SourceAlpha"/><feGaussianBlur result="B"/><feFlood flood-opacity=".2"/><feComposite operator="in" in2="B"/><feBlend result="E" in="SourceGraphic"/><feFlood flood-color="#fff"/><feComposite operator="in" in2="SourceGraphic"/><feBlend in2="E"/></filter></defs><path d="M171.378 120.256a40.064 40.064 0 0 0-.9 8.4c0 24.428 22.065 44.3 49.185 44.3s49.185-19.876 49.185-44.3a40.791 40.791 0 0 0-7.016-22.774c-16.718 8.625-37 10.456-55.37 10.6-12.27.104-23.703.577-35.084 3.774zm254.133 159.7c-6.868 5.486-16.458 10.982-28.5 16.157-15.32-23.023-28.627-47.623-38.52-73.475-7.417-19.37-14.487-41.367-12.4-62.4 1.213-12.208 9.64-28.907 24.762-25.9 6.123 1.22 10.8 6.346 15.854 9.637 7.954 5.183 17 6.676 26.354 5.415 18.34-43.307 2-91.94-25.147-117.34L381.056 0c-21.5.44-45.507 3.8-61.848 19.15-11.36 10.67-16.72 25.4-22.008 39.664C291.92 73.05 285.913 87.3 274.248 97.5a55.65 55.65 0 0 1 9.607 31.156c0 32.695-28.8 59.294-64.2 59.294s-64.2-26.6-64.2-59.294a55.1 55.1 0 0 1 .493-7.223c-54.48-24.87-101.557 19.447-105.52 22.606l29 30.38c21.853-23.942 47.6-28.375 49.2-28.49-45.5 42.118-72.558 117.7-82.085 148.223-9.977-4.59-18.063-9.394-24.068-14.2L0 308.066c23 18.368 52.275 28.624 80.4 36.042 38.24 10.085 77.9 14.788 117.354 16.3 42.146 1.6 84.616-.415 126.275-7.155 33.325-5.4 67.072-13.594 97.448-28.674a147.139 147.139 0 0 0 26.52-16.5zm-209.685 44.9c-44.58-.55-89.74-5.2-132.713-17.5 30.536-46.743 80.8-81.412 138.462-77.934 53.078 3.2 99.826 37.2 129.832 79.546q.588.83 1.166 1.666c-44.558 11.046-90.934 14.778-136.747 14.214z" fill-rule="evenodd" filter="url(#A)"/></svg>