<svg xmlns="http://www.w3.org/2000/svg" width="60" height="57" viewBox="0 0 60 57"><defs><filter id="A" x="0" y="0" width="61" height="58" filterUnits="userSpaceOnUse"><feOffset dx="0.5" dy="0.866" in="SourceAlpha"/><feGaussianBlur result="B"/><feFlood flood-opacity=".2"/><feComposite operator="in" in2="B"/><feBlend result="E" in="SourceGraphic"/><feFlood flood-color="#fff"/><feComposite operator="in" in2="SourceGraphic"/><feBlend in2="E"/></filter></defs><path d="M57.82 26.193a3 3 0 0 0-.35-4.4L32.04 1.9 30 0l-2.04 1.9L2.53 21.8a3 3 0 0 0 3.678 4.737L30 8.188l23.792 18.34a3 3 0 0 0 4.029-.335zM59 46a1 1 0 0 0-1 1v1h-1v-1a1 1 0 0 0-2 0v1h-2V25.917L30 8.188 7 25.917V48H5v-1a1 1 0 0 0-2 0v1H2v-1a1 1 0 1 0-2 0v9a1 1 0 1 0 2 0v-1h1v1a1 1 0 0 0 2 0v-1h2v2h26V39h12v18h8v-2h2v1a1 1 0 0 0 2 0v-1h1v1a1 1 0 0 0 2 0v-9a1 1 0 0 0-1-1zM3 53H2v-3h1v3zm4 0H5v-3h2v3zm13-4h-5v-4h5v4zm0-6h-5v-4h5v4zm7 6h-5v-4h5v4zm0-6h-5v-4h5v4zm0-10H15v-4h12v4zm0-6H15v-2h12v2zm18 6H33v-2h12v2zm0-4H33v-4h12v4zm10 24h-2v-3h2v3zm3 0h-1v-3h1v3z" fill-rule="evenodd" filter="url(#A)"/></svg>