<svg xmlns="http://www.w3.org/2000/svg" width="79.859" height="80" viewBox="0 0 798.594 800"><defs><filter id="A" x=".406" y="-.156" width="800.594" height="801.156" filterUnits="userSpaceOnUse"><feOffset dx="0.5" dy="0.866" in="SourceAlpha"/><feGaussianBlur result="B"/><feFlood flood-color="#e8eff5"/><feComposite operator="in" in2="B"/><feBlend result="E" in="SourceGraphic"/><feFlood flood-color="#007eff"/><feComposite operator="in" in2="SourceGraphic"/><feBlend in2="E"/></filter></defs><path d="M788.967,640.032L687.01,538.137c-13.562-13.553-33.986-13.553-47.547,0s-13.562,33.965,0,47.519l45.913,45.885H566.426V580.92a33.986,33.986,0,0,0-67.972,0v50.621H381.138V580.92a33.986,33.986,0,0,0-67.972,0v50.621h-142.8V499.11h36.6a33.966,33.966,0,1,0,0-67.931h-36.6V313.934h36.6a33.966,33.966,0,1,0,0-67.931h-36.6V115.041l44.116,44.09c13.561,13.553,33.985,13.553,47.547,0s13.561-33.965,0-47.519L160.067,9.717C147.485-2.857,127.061-4,112.519,9.717L10.562,111.776C-3,125.329-3,145.741,10.562,159.294s33.986,13.554,47.548,0l44.116-44.09V663.873a34.161,34.161,0,0,0,33.986,33.966H683.578l-44.115,44.089c-13.562,13.553-13.562,33.965,0,47.519s33.985,13.553,47.547,0l101.957-101.9C802.529,674.977,804,654.566,788.967,640.032ZM287.513,422.525c15.359,11.92,35.62,8.491,47.548-5.063L409.9,327.487l122.382,95.2c21.894,15.022,39.051,1.633,45.913-5.062L783.9,176.44c11.927-15.35,10.131-35.6-3.431-47.519-15.359-11.92-35.62-10.124-47.547,3.43L546,351.328,423.62,254.494c-13.562-10.124-33.986-8.491-45.914,5.063L282.448,375.006C270.52,390.356,273.952,410.767,287.513,422.525Z" transform="translate(-.406)" fill-rule="evenodd" filter="url(#A)"/></svg>