<svg xmlns="http://www.w3.org/2000/svg" width="79.9" height="60.8" viewBox="0 0 799 608"><defs><filter id="A" x="1" y="1" width="799.844" height="609" filterUnits="userSpaceOnUse"><feFlood flood-color="#d60505"/><feComposite operator="in" in2="SourceGraphic"/><feBlend in2="SourceGraphic"/></filter></defs><path d="M703.192,1H98.807A97.917,97.917,0,0,0,1,98.858V512.143A97.918,97.918,0,0,0,98.807,610h604.22a97.917,97.917,0,0,0,97.807-97.857V99.023A97.811,97.811,0,0,0,703.192,1Zm53.124,511.143a53.2,53.2,0,0,1-53.124,53.151H98.807a53.2,53.2,0,0,1-53.124-53.151V99.023A53.2,53.2,0,0,1,98.807,45.872h604.22a53.2,53.2,0,0,1,53.124,53.151v413.12h0.165ZM505.427,300.367L701.041,124.853a22.388,22.388,0,0,0-29.954-33.281L401.331,333.814,348.7,286.79a0.88,0.88,0,0,1-.331-0.5,33.114,33.114,0,0,0-3.641-3.146L130.582,91.407a22.394,22.394,0,0,0-29.789,33.446l197.931,177L101.62,486.478a22.453,22.453,0,0,0-.993,31.626,22.855,22.855,0,0,0,16.384,7.119,22.383,22.383,0,0,0,15.226-5.961L332.32,331.993,386.6,380.507a22.275,22.275,0,0,0,29.789-.165l55.772-50L671.087,519.428A22.393,22.393,0,0,0,702.7,518.6a22.451,22.451,0,0,0-.828-31.626Z" transform="translate(-1 -1)" fill-rule="evenodd" filter="url(#A)"/></svg>