<svg xmlns="http://www.w3.org/2000/svg" width="72" height="98"><defs><filter id="A" x="0" y="0" width="72" height="98" filterUnits="userSpaceOnUse"><feFlood flood-color="#37bb0f"/><feComposite operator="in" in2="SourceGraphic"/><feBlend in2="SourceGraphic"/></filter></defs><path d="M36,0A36.079,36.079,0,0,0,0,36.08,35.256,35.256,0,0,0,3.149,50.806c9,19.738,26.257,40.576,31.333,46.492a2,2,0,0,0,3.036,0c5.075-5.915,22.33-26.752,31.334-46.492A35.255,35.255,0,0,0,72,36.08,36.082,36.082,0,0,0,36,0Zm0,54.816a18.74,18.74,0,1,1,18.7-18.74A18.742,18.742,0,0,1,36,54.819Z" fill-rule="evenodd" filter="url(#A)"/></svg>