<svg xmlns="http://www.w3.org/2000/svg" width="799.625" height="523"><defs><filter id="A" x=".375" y="0" width="800.625" height="524" filterUnits="userSpaceOnUse"><feOffset dx="0.5" dy="0.866" in="SourceAlpha"/><feGaussianBlur result="B"/><feFlood flood-opacity=".2"/><feComposite operator="in" in2="B"/><feBlend result="E" in="SourceGraphic"/><feFlood flood-color="#fff"/><feComposite operator="in" in2="SourceGraphic"/><feBlend in2="E"/></filter></defs><path d="M79.127,23.52C-4,23.52.409,313.605,0.409,356.725H79.127V23.52Zm661.263,0c32.923,0,59.61,42.634,59.61,95.225s-26.687,95.225-59.61,95.225-59.61-42.634-59.61-95.225S707.469,23.52,740.39,23.52ZM400.205,0c-144.7,0-261.468,117.438-261.468,261.5,0,144.715,117.424,261.5,261.468,261.5,144.7,0,261.467-117.438,261.467-261.5A261.11,261.11,0,0,0,400.205,0Zm0,429.736c-92.6,0-168.215-75.134-168.215-168.236,0-92.611,75.125-168.235,168.215-168.235A167.985,167.985,0,0,1,568.419,261.5C568.419,354.112,493.3,429.736,400.205,429.736Zm0-304.131A135.9,135.9,0,1,0,536.083,261.5,135.887,135.887,0,0,0,400.205,125.605ZM30.3,389.066l-3.1,80.524a28.609,28.609,0,1,0,57.16,0l-3.1-80.524H30.3ZM721.283,243.7L711.811,469.59a28.609,28.609,0,1,0,57.16,0L759.5,243.7C752.312,247.127,727,247.127,721.283,243.7Z" transform="translate(-.375)" fill-rule="evenodd" filter="url(#A)"/></svg>