<svg xmlns="http://www.w3.org/2000/svg" width="921" height="680" viewBox="0 0 921 680"><defs><filter id="A" x="0" y="0" width="922" height="681" filterUnits="userSpaceOnUse"><feOffset dx="0.5" dy="0.866" in="SourceAlpha"/><feGaussianBlur result="B"/><feFlood flood-opacity=".2"/><feComposite operator="in" in2="B"/><feBlend result="E" in="SourceGraphic"/><feFlood flood-color="#fff"/><feComposite operator="in" in2="SourceGraphic"/><feBlend in2="E"/></filter></defs><path d="M280.9 680A279.044 279.044 0 0 0 436 633.386c-6.2-5.4-12.2-11.1-18.1-17.105a316.422 316.422 0 0 1-35.7-43.813 199.4 199.4 0 0 1-101.4 27.508c-110.7 0-200.8-90.126-200.8-200.86 0-85.225 53.4-158.246 128.4-187.355l-57.9-61.618A281 281 0 0 0 280.9 680zm256.3-453.133a199.77 199.77 0 0 1 103.1-28.609c110.7 0 200.8 90.127 200.8 200.86s-90.1 200.86-200.8 200.86A200.975 200.975 0 0 1 446 348.3a172.021 172.021 0 0 0-53.7-81.323 280.112 280.112 0 0 0-32.8 132.038c0 80.924 36.1 159.947 97.5 212.763A283.462 283.462 0 0 0 633 679.8c2.4.1 4.8.1 7.3.1a280.783 280.783 0 0 0 0-561.565 278.609 278.609 0 0 0-156.8 47.814 305.156 305.156 0 0 1 53.7 60.718zm-87.9-52.316a266.664 266.664 0 0 0-38.3-24.307l-57.7 61.518 5.2 2.1a200.986 200.986 0 0 1 117.3 233.97l6.3 15.5a173.541 173.541 0 0 0 47.8 66.019 278.664 278.664 0 0 0 30.5-102.129c.9-9.3 1.4-18.706 1.4-28.01-.1-87.82-43.3-172.046-112.5-224.662zm-186.7 53.916a25.1 25.1 0 0 0 18.2 7.9 24.716 24.716 0 0 0 18.2-7.9l124.7-132.54a25.043 25.043 0 0 0 2.9-30.509L392.4 11.6A25.006 25.006 0 0 0 371.3 0H190.5a25.135 25.135 0 0 0-21.1 11.6l-34.2 53.82a24.9 24.9 0 0 0 2.9 30.509z" fill-rule="evenodd" filter="url(#A)"/></svg>