<svg xmlns="http://www.w3.org/2000/svg" width="611.5" height="556.781" viewBox="0 0 611.5 556.781"><defs><filter id="A" x=".5" y=".219" width="613.5" height="557.781" filterUnits="userSpaceOnUse"><feOffset dx="0.5" dy="0.866" in="SourceAlpha"/><feGaussianBlur result="B"/><feFlood flood-opacity=".2"/><feComposite operator="in" in2="B"/><feBlend result="E" in="SourceGraphic"/><feFlood flood-color="#fff"/><feComposite operator="in" in2="SourceGraphic"/><feBlend in2="E"/></filter></defs><path d="M367.674 88.98V.225L305.736 24.36 243.8.225V88.98l61.938-24.133zm149.818 423.15l95.008 3.25-73.11-435.69L415.926 29.42 306.5 296.4 197.072 29.42 73.612 79.685.5 515.378l95.008-3.25 41.758-236.535.915 46.987-10.06 136.754-10.43 97.44h148.612l40.195-73.052 40.192 73.052H495.3l-10.432-97.44-10.056-136.924.917-46.91zm-67.234-290.277H376.85v-27.528h73.408v27.528z" transform="translate(-.5 -.219)" fill-rule="evenodd" filter="url(#A)"/></svg>