<svg xmlns="http://www.w3.org/2000/svg" width="799.125" height="800" viewBox="0 0 799.125 800"><defs><filter id="A" x=".875" y="0" width="801.125" height="802" filterUnits="userSpaceOnUse"><feOffset dx="0.5" dy="0.866" in="SourceAlpha"/><feGaussianBlur result="B"/><feFlood flood-opacity=".2"/><feComposite operator="in" in2="B"/><feBlend result="E" in="SourceGraphic"/><feFlood flood-color="#fff"/><feComposite operator="in" in2="SourceGraphic"/><feBlend in2="E"/></filter></defs><path d="M526.053,326.661L578.322,274.4l57.185-57.174,47.518-47.508,33.426,6.061L801,91.249,723.661,77.324,709.734,0,625.348,84.532l6.063,33.42L583.894,165.46C443.635,51.276,236.2,59.468,105.44,190.033-34,329.446-34,556.175,105.44,695.588s366.213,139.412,505.654,0c116.663-116.642,135.67-294.388,57.02-430.852L608.8,324.04c48.665,102.88,30.641,229.842-54.4,314.865-108.143,108.123-283.958,108.123-392.1,0S54.154,355,162.3,246.879c99.295-99.276,255.776-107.3,364.411-24.081l-52.269,52.259c-79.8-55.208-189.907-47.345-260.692,23.427-79.633,79.617-79.633,209.036,0,288.654s209.078,79.617,288.711,0c55.874-55.864,72.424-136.3,49.812-206.908L481.485,451a123.867,123.867,0,1,1-65.706-117.789l-56.2,56.191a53.436,53.436,0,0,0-39.488,91.25c20.809,20.968,54.727,20.8,75.7,0a53.168,53.168,0,0,0,15.566-39.482l56.2-56.191Z" transform="translate(-.875)" fill-rule="evenodd" filter="url(#A)"/></svg>