<svg xmlns="http://www.w3.org/2000/svg" width="453" height="440.875"><defs><filter id="A" x="0" y=".125" width="454" height="442.875" filterUnits="userSpaceOnUse"><feOffset dx="0.5" dy="0.866" in="SourceAlpha"/><feGaussianBlur result="B"/><feFlood flood-opacity=".2"/><feComposite operator="in" in2="B"/><feBlend result="E" in="SourceGraphic"/><feFlood flood-color="#fff"/><feComposite operator="in" in2="SourceGraphic"/><feBlend in2="E"/></filter></defs><path d="M420.134,104.637H280.09l49.728-81.681A15,15,0,1,0,304.2,7.326l-59.243,97.311H208.043L148.8,7.326a15,15,0,1,0-25.617,15.63l49.728,81.681H32.865A32.92,32.92,0,0,0,0,137.537V409.1A32.92,32.92,0,0,0,32.865,442h387.27A32.92,32.92,0,0,0,453,409.1V137.537A32.921,32.921,0,0,0,420.134,104.637ZM317.676,369.631a17.874,17.874,0,0,1-17.865,17.884H71.188a17.875,17.875,0,0,1-17.864-17.884V177.006a17.875,17.875,0,0,1,17.865-17.884H299.811a17.876,17.876,0,0,1,17.865,17.884V369.631Zm66.115-5.715a31.034,31.034,0,1,1,31-31.033A31.052,31.052,0,0,1,383.791,363.916Zm0-119.128a31.034,31.034,0,1,1,31-31.033A31.052,31.052,0,0,1,383.791,244.788Z" transform="translate(0 -.125)" fill-rule="evenodd" filter="url(#A)"/></svg>