<svg xmlns="http://www.w3.org/2000/svg" width="88.813" height="57" viewBox="0 0 88.813 57"><defs><filter id="A" x="1.188" y="1" width="90.813" height="59" filterUnits="userSpaceOnUse"><feOffset dx="0.5" dy="0.866" in="SourceAlpha"/><feGaussianBlur result="B"/><feFlood flood-opacity=".2"/><feComposite operator="in" in2="B"/><feBlend result="E" in="SourceGraphic"/><feFlood flood-color="#fff"/><feComposite operator="in" in2="SourceGraphic"/><feBlend in2="E"/></filter></defs><path d="M59.724 2.012A2.88 2.88 0 0 0 57.7 1H39.72c-.638 0-.66.48-.344 1.033L71.16 57.22a1.4 1.4 0 0 0 1.674.4l17.337-5.478c.285-.096.508-.32.605-.604s.055-.598-.113-.847zM16.632 57.23L31.97 24.5v31.667c0 2.833 3 2.67 3.643 2.67H65.5c.638 0 .9-1.027.582-1.58L35.2 2.53a.6.6 0 0 0-1.143 0l-7.73 13.576a4.86 4.86 0 0 1-1.58 1.563C16.924 22.008 6.376 27.8 1.7 29.854c-.307.168-.507.48-.53.83s.133.686.414.894a52.16 52.16 0 0 1 5.289 6.14 32.7 32.7 0 0 1 3.077 5.248 2.51 2.51 0 0 1-.1 2.055L3.213 57.257c-.313.554-.05 1.58.586 1.58h11.155c.638 0 1.39-1.038 1.678-1.607zm-8.92-25.22c-.136-.1-.2-.25-.19-.41s.126-.3.278-.358L30.988 18.7c.326-.2.446-.094.272.247l-14.758 29c-.173.34-.372.313-.456-.062-.555-2.45-2.808-10.985-8.333-15.873z" transform="translate(-1.188 -1)" fill-rule="evenodd" filter="url(#A)"/></svg>